<svg xmlns="http://www.w3.org/2000/svg" viewBox="0 0 549.17 656.32"><defs><style>.cls-1{fill:#fff;}.cls-2{fill:#ecb64b;}.cls-3{fill:#db5750;}.cls-4{fill:#c6c6c6;}.cls-5,.cls-6,.cls-7{fill:none;}.cls-5,.cls-7{stroke:#fff;stroke-miterlimit:10;}.cls-5{stroke-width:5px;}.cls-7{stroke-width:2px;}.cls-8{font-size:54px;fill:#1d1d1b;font-family:HelveticaNeue-Medium, Helvetica Neue;}</style></defs><title>jenadevs-logo</title><g id="unterer_kreis" data-name="unterer kreis"><path class="cls-1" d="M306.67,45.24c-143.9,0-260.55,116.65-260.55,260.55S162.77,566.33,306.67,566.33,567.22,449.68,567.22,305.78,450.56,45.24,306.67,45.24Zm0,443.93A182.49,182.49,0,1,1,489.16,306.67,182.49,182.49,0,0,1,306.67,489.17Z" transform="translate(-18.05 25.99)"/></g><g id="Ebene_1" data-name="Ebene 1"><path class="cls-2" d="M306.67,305.61h-189c0-104.38,84.62-189,189-189h0Z" transform="translate(-18.05 25.99)"/><path class="cls-3" d="M306.67,305.61v189c-104.38,0-189-84.62-189-189h189Z" transform="translate(-18.05 25.99)"/><path class="cls-2" d="M306.67,305.61h189c0,104.38-84.62,189-189,189h0Z" transform="translate(-18.05 25.99)"/><path class="cls-3" d="M306.67,305.61v-189c104.38,0,189,84.62,189,189h-189Z" transform="translate(-18.05 25.99)"/></g><g id="Ebene_10" data-name="Ebene 10"><path class="cls-4" d="M261.65,489.17V292.36S306.9,274.6,348,295" transform="translate(-18.05 25.99)"/><polygon class="cls-4" points="276.38 304.82 328.59 320.28 329.64 522.27 243.25 526.43 267.52 378.56 276.38 304.82"/></g><g id="Ebene_11" data-name="Ebene 11"><polygon class="cls-1" points="243.25 508.1 276.51 500.33 297.14 500.52 329.99 508.1 329.99 523.32 243.6 527.62 243.25 508.1"/></g><g id="tower"><path class="cls-5" d="M348.38,292.36V502.63s-38.65,12.39-86.73,0V292.36S290.68,277.47,348.38,292.36Z" transform="translate(-18.05 25.99)"/><path class="cls-6" d="M350.15,292.36" transform="translate(-18.05 25.99)"/><path class="cls-6" d="M263.41,292.36" transform="translate(-18.05 25.99)"/><path class="cls-1" d="M260,299.45l1-.39c.71-.28,1.66-.61,2.87-1s2.68-.86,4.39-1.3l2.7-.71,3-.66c1-.25,2.14-.45,3.28-.64l3.52-.6,3.74-.47c.64-.08,1.28-.17,1.93-.23l2-.15,4-.31,4.14-.1c2.78-.13,5.61.06,8.43.14,1.41,0,2.81.17,4.21.31l4.16.4c2.75.32,5.43.84,8,1.23l1,.16.95.22,1.87.43,3.61.83,1.73.4c.57.13,1.11.33,1.65.48l3.13.95,2.87.87,1.33.41,1.23.47,4.1,1.57,3.56,1.37-3.67-1-4.21-1.19-1.25-.35-1.35-.28L335,299.6l-3.16-.66c-.55-.11-1.1-.25-1.67-.33l-1.74-.24-3.61-.49-1.86-.25-.94-.13-1-.07c-2.58-.15-5.22-.42-7.92-.49l-4.07,0c-1.36,0-2.73,0-4.09.07-2.73.17-5.45.23-8.11.6l-4,.45-3.82.64-1.86.31c-.61.12-1.21.26-1.81.39l-3.49.77-3.27.87c-1.06.27-2.07.56-3,.88l-2.76.87-2.44.88c-1.53.54-2.82,1.11-3.89,1.55s-1.88.83-2.36,1.08l-.83.42Z" transform="translate(-18.05 25.99)"/><path class="cls-1" d="M260,311.08l1-.39c.71-.28,1.66-.61,2.87-1s2.68-.86,4.39-1.3l2.7-.71,3-.66c1-.25,2.14-.45,3.28-.64l3.52-.6,3.74-.47c.64-.08,1.28-.17,1.93-.23l2-.15,4-.31,4.14-.1c2.78-.13,5.61.06,8.43.14,1.41,0,2.81.17,4.21.31l4.16.4c2.75.32,5.43.84,8,1.23l1,.16.95.22,1.87.43,3.61.83,1.73.4c.57.13,1.11.33,1.65.48l3.13.95,2.87.87,1.33.41,1.23.47,4.1,1.57,3.56,1.37-3.67-1-4.21-1.19-1.25-.35-1.35-.28-2.91-.6-3.16-.66c-.55-.11-1.1-.25-1.67-.33l-1.74-.24-3.61-.49-1.86-.25-.94-.13-1-.07c-2.58-.15-5.22-.42-7.92-.49l-4.07,0c-1.36,0-2.73,0-4.09.07-2.73.17-5.45.23-8.11.6l-4,.45-3.82.64-1.86.31c-.61.12-1.21.26-1.81.39l-3.49.77-3.27.87c-1.06.27-2.07.56-3,.88l-2.76.87-2.44.88c-1.53.54-2.82,1.11-3.89,1.55s-1.88.83-2.36,1.08l-.83.42Z" transform="translate(-18.05 25.99)"/><path class="cls-1" d="M260,322.3l1-.39c.71-.28,1.66-.61,2.87-1s2.68-.86,4.39-1.3l2.7-.71,3-.66c1-.25,2.14-.45,3.28-.64l3.52-.6,3.74-.47c.64-.08,1.28-.17,1.93-.23l2-.15,4-.31,4.14-.1c2.78-.13,5.61.06,8.43.14,1.41,0,2.81.17,4.21.31l4.16.4c2.75.32,5.43.84,8,1.23l1,.16.95.22,1.87.43,3.61.83,1.73.4c.57.13,1.11.33,1.65.48l3.13.95,2.87.87,1.33.41,1.23.47,4.1,1.57,3.56,1.37-3.67-1-4.21-1.19-1.25-.35-1.35-.28-2.91-.61-3.16-.66c-.55-.11-1.1-.25-1.67-.33l-1.74-.24-3.61-.49-1.86-.25-.94-.13-1-.07c-2.58-.15-5.22-.42-7.92-.49l-4.07,0c-1.36,0-2.73,0-4.09.07-2.73.17-5.45.23-8.11.6l-4,.45-3.82.64-1.86.31c-.61.12-1.21.26-1.81.39l-3.49.77-3.27.87c-1.06.27-2.07.56-3,.88l-2.76.87-2.44.88c-1.53.54-2.82,1.11-3.89,1.55s-1.88.83-2.36,1.08l-.83.42Z" transform="translate(-18.05 25.99)"/><path class="cls-1" d="M260,333.63l1-.39c.71-.28,1.66-.61,2.87-1s2.68-.86,4.39-1.3l2.7-.71,3-.66c1-.25,2.14-.45,3.28-.64l3.52-.6,3.74-.47c.64-.08,1.28-.17,1.93-.23l2-.15,4-.31,4.14-.1c2.78-.13,5.61.06,8.43.14,1.41,0,2.81.17,4.21.31l4.16.4c2.75.32,5.43.84,8,1.23l1,.16.95.22,1.87.43,3.61.83,1.73.4c.57.13,1.11.33,1.65.48l3.13.95,2.87.87,1.33.41,1.23.47,4.1,1.57,3.56,1.37-3.67-1L340.5,335l-1.25-.35-1.35-.28-2.91-.6-3.16-.66c-.55-.11-1.1-.25-1.67-.33l-1.74-.24-3.61-.49-1.86-.25-.94-.13-1-.07c-2.58-.15-5.22-.42-7.92-.49l-4.07,0c-1.36,0-2.73,0-4.09.07-2.73.17-5.45.23-8.11.6l-4,.45-3.82.64-1.86.31c-.61.12-1.21.26-1.81.39l-3.49.77-3.27.87c-1.06.27-2.07.56-3,.88l-2.76.87-2.44.88c-1.53.54-2.82,1.11-3.89,1.55s-1.88.83-2.36,1.08l-.83.42Z" transform="translate(-18.05 25.99)"/><path class="cls-1" d="M260,344.85l1-.39c.71-.28,1.66-.61,2.87-1s2.68-.86,4.39-1.3l2.7-.71,3-.66c1-.25,2.14-.45,3.28-.64l3.52-.6,3.74-.47c.64-.08,1.28-.17,1.93-.23l2-.15,4-.31,4.14-.1c2.78-.13,5.61.06,8.43.14,1.41,0,2.81.17,4.21.31l4.16.4c2.75.32,5.43.84,8,1.23l1,.16.95.22,1.87.43,3.61.83,1.73.4c.57.13,1.11.33,1.65.48l3.13.95,2.87.87,1.33.41,1.23.47,4.1,1.57,3.56,1.37-3.67-1-4.21-1.19-1.25-.35-1.35-.28L335,345l-3.16-.66c-.55-.11-1.1-.25-1.67-.33l-1.74-.24-3.61-.49-1.86-.25-.94-.13-1-.07c-2.58-.15-5.22-.42-7.92-.49l-4.07,0c-1.36,0-2.73,0-4.09.07-2.73.17-5.45.23-8.11.6l-4,.45-3.82.64-1.86.31c-.61.12-1.21.26-1.81.39l-3.49.77-3.27.87c-1.06.27-2.07.56-3,.88l-2.76.87-2.44.88c-1.53.54-2.82,1.11-3.89,1.55s-1.88.83-2.36,1.08l-.83.42Z" transform="translate(-18.05 25.99)"/><path class="cls-1" d="M260,356.48l1-.39c.71-.28,1.66-.61,2.87-1s2.68-.86,4.39-1.3l2.7-.71,3-.66c1-.25,2.14-.45,3.28-.64l3.52-.6,3.74-.47c.64-.08,1.28-.17,1.93-.23l2-.15,4-.31,4.14-.1c2.78-.13,5.61.06,8.43.14,1.41,0,2.81.17,4.21.31l4.16.4c2.75.32,5.43.84,8,1.23l1,.16.95.22,1.87.43,3.61.83,1.73.4c.57.13,1.11.33,1.65.48l3.13.95,2.87.87,1.33.41,1.23.47,4.1,1.57,3.56,1.37-3.67-1-4.21-1.19-1.25-.35-1.35-.28-2.91-.61-3.16-.66c-.55-.11-1.1-.25-1.67-.33l-1.74-.24-3.61-.49-1.86-.25-.94-.13-1-.07c-2.58-.15-5.22-.42-7.92-.49L309,354c-1.36,0-2.73,0-4.09.07-2.73.17-5.45.23-8.11.6l-4,.45-3.82.64-1.86.31c-.61.12-1.21.26-1.81.39l-3.49.77-3.27.87c-1.06.27-2.07.56-3,.88l-2.76.87-2.44.88c-1.53.54-2.82,1.11-3.89,1.55s-1.88.83-2.36,1.08l-.83.42Z" transform="translate(-18.05 25.99)"/><path class="cls-1" d="M260,367.7l1-.39c.71-.28,1.66-.61,2.87-1s2.68-.86,4.39-1.3l2.7-.71,3-.66c1-.25,2.14-.45,3.28-.64l3.52-.6,3.74-.47c.64-.08,1.28-.17,1.93-.23l2-.15,4-.31,4.14-.1c2.78-.13,5.61.06,8.43.14,1.41,0,2.81.17,4.21.31l4.16.4c2.75.32,5.43.84,8,1.23l1,.16.95.22,1.87.43,3.61.83,1.73.4c.57.13,1.11.33,1.65.48l3.13.95,2.87.87,1.33.41,1.23.47,4.1,1.57,3.56,1.37-3.67-1-4.21-1.19-1.25-.35-1.35-.28-2.91-.6-3.16-.66c-.55-.11-1.1-.25-1.67-.33l-1.74-.24-3.61-.49-1.86-.25-.94-.13-1-.07c-2.58-.15-5.22-.42-7.92-.49l-4.07,0c-1.36,0-2.73,0-4.09.07-2.73.17-5.45.23-8.11.6l-4,.45-3.82.64-1.86.31c-.61.12-1.21.26-1.81.39l-3.49.77-3.27.87c-1.06.27-2.07.56-3,.88l-2.76.87-2.44.88c-1.53.54-2.82,1.11-3.89,1.55s-1.88.83-2.36,1.08l-.83.42Z" transform="translate(-18.05 25.99)"/><path class="cls-1" d="M259.61,379.14l1-.39c.71-.28,1.66-.61,2.87-1s2.68-.86,4.39-1.3l2.7-.71,3-.66c1-.25,2.14-.45,3.28-.64l3.52-.6,3.74-.47c.64-.08,1.28-.17,1.93-.23l2-.15,4-.31,4.14-.1c2.78-.13,5.61.06,8.43.14,1.41,0,2.81.17,4.21.31l4.16.4c2.75.32,5.43.84,8,1.23l1,.16.95.22,1.87.43,3.61.83,1.73.4c.57.13,1.11.33,1.65.48l3.13.95,2.87.87,1.33.41,1.23.47,4.1,1.57,3.56,1.37-3.67-1-4.21-1.19-1.25-.35-1.35-.28-2.91-.61-3.16-.66c-.55-.11-1.1-.25-1.67-.33l-1.74-.24-3.61-.49-1.86-.25-.94-.13-1-.07c-2.58-.15-5.22-.42-7.92-.49l-4.07,0c-1.36,0-2.73,0-4.09.07-2.73.17-5.45.23-8.11.6l-4,.45-3.82.64-1.86.31c-.61.12-1.21.26-1.81.39l-3.49.77-3.27.87c-1.06.27-2.07.56-3,.88l-2.76.87-2.44.88c-1.53.54-2.82,1.11-3.89,1.55s-1.88.83-2.36,1.08l-.83.42Z" transform="translate(-18.05 25.99)"/><path class="cls-1" d="M259.61,390.36l1-.39c.71-.28,1.66-.61,2.87-1s2.68-.86,4.39-1.3l2.7-.71,3-.66c1-.25,2.14-.45,3.28-.64l3.52-.6,3.74-.47c.64-.08,1.28-.17,1.93-.23l2-.15,4-.31,4.14-.1c2.78-.13,5.61.06,8.43.14,1.41,0,2.81.17,4.21.31l4.16.4c2.75.32,5.43.84,8,1.23l1,.16.95.22,1.87.43,3.61.83,1.73.4c.57.13,1.11.33,1.65.48l3.13.95,2.87.87,1.33.41,1.23.47,4.1,1.57L348,394l-3.67-1-4.21-1.19-1.25-.35-1.35-.28-2.91-.61-3.16-.66c-.55-.11-1.1-.25-1.67-.33l-1.74-.24-3.61-.49-1.86-.25-.94-.13-1-.07c-2.58-.15-5.22-.42-7.92-.49l-4.07,0c-1.36,0-2.73,0-4.09.07-2.73.17-5.45.23-8.11.6l-4,.45-3.82.64-1.86.31c-.61.12-1.21.26-1.81.39l-3.49.77-3.27.87c-1.06.27-2.07.56-3,.88l-2.76.87-2.44.88c-1.53.54-2.82,1.11-3.89,1.55s-1.88.83-2.36,1.08l-.83.42Z" transform="translate(-18.05 25.99)"/><path class="cls-1" d="M259.61,402l1-.39c.71-.28,1.66-.61,2.87-1s2.68-.86,4.39-1.3l2.7-.71,3-.66c1-.25,2.14-.45,3.28-.64l3.52-.6,3.74-.47c.64-.08,1.28-.17,1.93-.23l2-.15,4-.31,4.14-.1c2.78-.13,5.61.06,8.43.14,1.41,0,2.81.17,4.21.31l4.16.4c2.75.32,5.43.84,8,1.23l1,.16.95.22,1.87.43,3.61.83,1.73.4c.57.13,1.11.33,1.65.48l3.13.95,2.87.87,1.33.41,1.23.47,4.1,1.57,3.56,1.37-3.67-1-4.21-1.19L338.9,403l-1.35-.28-2.91-.61-3.16-.66c-.55-.11-1.1-.25-1.67-.33l-1.74-.24-3.61-.49-1.86-.25-.94-.13-1-.07c-2.58-.15-5.22-.42-7.92-.49l-4.07,0c-1.36,0-2.73,0-4.09.07-2.73.17-5.45.23-8.11.6l-4,.45-3.82.64-1.86.31c-.61.12-1.21.26-1.81.39l-3.49.77-3.27.87c-1.06.27-2.07.56-3,.88l-2.76.87-2.44.88c-1.53.54-2.82,1.11-3.89,1.55s-1.88.83-2.36,1.08l-.83.42Z" transform="translate(-18.05 25.99)"/><path class="cls-1" d="M259.61,413.21l1-.39c.71-.28,1.66-.61,2.87-1s2.68-.86,4.39-1.3l2.7-.71,3-.66c1-.25,2.14-.45,3.28-.64l3.52-.6,3.74-.47c.64-.08,1.28-.17,1.93-.23l2-.15,4-.31,4.14-.1c2.78-.13,5.61.06,8.43.14,1.41,0,2.81.17,4.21.31l4.16.4c2.75.32,5.43.84,8,1.23l1,.16.95.22,1.87.43,3.61.83,1.73.4c.57.13,1.11.33,1.65.48l3.13.95,2.87.87,1.33.41,1.23.47,4.1,1.57,3.56,1.37-3.67-1-4.21-1.19-1.25-.35-1.35-.28-2.91-.61-3.16-.66c-.55-.11-1.1-.25-1.67-.33l-1.74-.24-3.61-.49-1.86-.25-.94-.13-1-.07c-2.58-.15-5.22-.42-7.92-.49l-4.07,0c-1.36,0-2.73,0-4.09.07-2.73.17-5.45.23-8.11.6l-4,.45-3.82.64-1.86.31c-.61.12-1.21.26-1.81.39l-3.49.77-3.27.87c-1.06.27-2.07.56-3,.88l-2.76.87-2.44.88c-1.53.54-2.82,1.11-3.89,1.55s-1.88.83-2.36,1.08l-.83.42Z" transform="translate(-18.05 25.99)"/><path class="cls-1" d="M260,423.54l1-.39c.71-.28,1.66-.61,2.87-1s2.68-.86,4.39-1.3l2.7-.71,3-.66c1-.25,2.14-.45,3.28-.64l3.52-.6,3.74-.47c.64-.08,1.28-.17,1.93-.23l2-.15,4-.31,4.14-.1c2.78-.13,5.61.06,8.43.14,1.41,0,2.81.17,4.21.31l4.16.4c2.75.32,5.43.84,8,1.23l1,.16.95.22,1.87.43,3.61.83,1.73.4c.57.13,1.11.33,1.65.48l3.13.95,2.87.87,1.33.41,1.23.47,4.1,1.57,3.56,1.37-3.67-1-4.21-1.19-1.25-.35-1.35-.28-2.91-.61-3.16-.66c-.55-.11-1.1-.25-1.67-.33l-1.74-.24L324.8,422l-1.86-.25-.94-.13-1-.07c-2.58-.15-5.22-.42-7.92-.49L309,421c-1.36,0-2.73,0-4.09.07-2.73.17-5.45.23-8.11.6l-4,.45-3.82.64-1.86.31c-.61.12-1.21.26-1.81.39l-3.49.77-3.27.87c-1.06.27-2.07.56-3,.88l-2.76.87-2.44.88c-1.53.54-2.82,1.11-3.89,1.55s-1.88.83-2.36,1.08l-.83.42Z" transform="translate(-18.05 25.99)"/><path class="cls-1" d="M260,434.76l1-.39c.71-.28,1.66-.61,2.87-1s2.68-.86,4.39-1.3l2.7-.71,3-.66c1-.25,2.14-.45,3.28-.64l3.52-.6,3.74-.47c.64-.08,1.28-.17,1.93-.23l2-.15,4-.31,4.14-.1c2.78-.13,5.61.06,8.43.14,1.41,0,2.81.17,4.21.31l4.16.4c2.75.32,5.43.84,8,1.23l1,.16.95.22,1.87.43,3.61.83,1.73.4c.57.13,1.11.33,1.65.48l3.13.95,2.87.87,1.33.41,1.23.47,4.1,1.57,3.56,1.37-3.67-1-4.21-1.19-1.25-.35-1.35-.28-2.91-.61-3.16-.66c-.55-.11-1.1-.25-1.67-.33l-1.74-.24-3.61-.49-1.86-.25-.94-.13-1-.07c-2.58-.15-5.22-.42-7.92-.49l-4.07,0c-1.36,0-2.73,0-4.09.07-2.73.17-5.45.23-8.11.6l-4,.45-3.82.64-1.86.31c-.61.12-1.21.26-1.81.39l-3.49.77-3.27.87c-1.06.27-2.07.56-3,.88l-2.76.87-2.44.88c-1.53.54-2.82,1.11-3.89,1.55s-1.88.83-2.36,1.08l-.83.42Z" transform="translate(-18.05 25.99)"/><path class="cls-1" d="M260,446.39l1-.39c.71-.28,1.66-.61,2.87-1s2.68-.86,4.39-1.3l2.7-.71,3-.66c1-.25,2.14-.45,3.28-.64l3.52-.6,3.74-.47c.64-.08,1.28-.17,1.93-.23l2-.15,4-.31,4.14-.1c2.78-.13,5.61.06,8.43.14,1.41,0,2.81.17,4.21.31l4.16.4c2.75.32,5.43.84,8,1.23l1,.16.95.22,1.87.43,3.61.83,1.73.4c.57.13,1.11.33,1.65.48l3.13.95,2.87.87,1.33.41,1.23.47,4.1,1.57,3.56,1.37-3.67-1-4.21-1.19-1.25-.35-1.35-.28-2.91-.61-3.16-.66c-.55-.11-1.1-.25-1.67-.33l-1.74-.24-3.61-.49-1.86-.25-.94-.13-1-.07c-2.58-.15-5.22-.42-7.92-.49l-4.07,0c-1.36,0-2.73,0-4.09.07-2.73.17-5.45.23-8.11.6l-4,.45-3.82.64-1.86.31c-.61.12-1.21.26-1.81.39l-3.49.77-3.27.87c-1.06.27-2.07.56-3,.88l-2.76.87-2.44.88c-1.53.54-2.82,1.11-3.89,1.55s-1.88.83-2.36,1.08l-.83.42Z" transform="translate(-18.05 25.99)"/><path class="cls-1" d="M260,457.61l1-.39c.71-.28,1.66-.61,2.87-1s2.68-.86,4.39-1.3l2.7-.71,3-.66c1-.25,2.14-.45,3.28-.64l3.52-.6,3.74-.47c.64-.08,1.28-.17,1.93-.23l2-.15,4-.31,4.14-.1c2.78-.13,5.61.06,8.43.14,1.41,0,2.81.17,4.21.31l4.16.4c2.75.32,5.43.84,8,1.23l1,.16.95.22,1.87.43,3.61.83,1.73.4c.57.13,1.11.33,1.65.48l3.13.95,2.87.87,1.33.41,1.23.47,4.1,1.57,3.56,1.37-3.67-1L340.5,459l-1.25-.35-1.35-.28-2.91-.6-3.16-.66c-.55-.11-1.1-.25-1.67-.33l-1.74-.24L324.8,456l-1.86-.25-.94-.13-1-.07c-2.58-.15-5.22-.42-7.92-.49l-4.07,0c-1.36,0-2.73,0-4.09.07-2.73.17-5.45.23-8.11.6l-4,.45-3.82.64-1.86.31c-.61.12-1.21.26-1.81.39l-3.49.77-3.27.87c-1.06.27-2.07.56-3,.88l-2.76.87-2.44.88c-1.53.54-2.82,1.11-3.89,1.55s-1.88.83-2.36,1.08l-.83.42Z" transform="translate(-18.05 25.99)"/><path class="cls-1" d="M259.61,468.26l1-.39c.71-.28,1.66-.61,2.87-1s2.68-.86,4.39-1.3l2.7-.71,3-.66c1-.25,2.14-.45,3.28-.64l3.52-.6,3.74-.47c.64-.08,1.28-.17,1.93-.23l2-.15,4-.31,4.14-.1c2.78-.13,5.61.06,8.43.14,1.41,0,2.81.17,4.21.31l4.16.4c2.75.32,5.43.84,8,1.23l1,.16.95.22,1.87.43,3.61.83,1.73.4c.57.13,1.11.33,1.65.48l3.13.95,2.87.87,1.33.41,1.23.47,4.1,1.57,3.56,1.37-3.67-1-4.21-1.19-1.25-.35-1.35-.28-2.91-.61-3.16-.66c-.55-.11-1.1-.25-1.67-.33l-1.74-.24-3.61-.49-1.86-.25-.94-.13-1-.07c-2.58-.15-5.22-.42-7.92-.49l-4.07,0c-1.36,0-2.73,0-4.09.07-2.73.17-5.45.23-8.11.6l-4,.45-3.82.64-1.86.31c-.61.12-1.21.26-1.81.39l-3.49.77-3.27.87c-1.06.27-2.07.56-3,.88l-2.76.87-2.44.88c-1.53.54-2.82,1.11-3.89,1.55s-1.88.83-2.36,1.08l-.83.42Z" transform="translate(-18.05 25.99)"/><path class="cls-1" d="M259.61,479.48l1-.39c.71-.28,1.66-.61,2.87-1s2.68-.86,4.39-1.3l2.7-.71,3-.66c1-.25,2.14-.45,3.28-.64l3.52-.6,3.74-.47c.64-.08,1.28-.17,1.93-.23l2-.15,4-.31,4.14-.1c2.78-.13,5.61.06,8.43.14,1.41,0,2.81.17,4.21.31l4.16.4c2.75.32,5.43.84,8,1.23l1,.16.95.22,1.87.43,3.61.83,1.73.4c.57.13,1.11.33,1.65.48l3.13.95,2.87.87,1.33.41,1.23.47,4.1,1.57,3.56,1.37-3.67-1-4.21-1.19-1.25-.35-1.35-.28-2.91-.61-3.16-.66c-.55-.11-1.1-.25-1.67-.33l-1.74-.24-3.61-.49-1.86-.25-.94-.13-1-.07c-2.58-.15-5.22-.42-7.92-.49l-4.07,0c-1.36,0-2.73,0-4.09.07-2.73.17-5.45.23-8.11.6l-4,.45-3.82.64-1.86.31c-.61.12-1.21.26-1.81.39l-3.49.77-3.27.87c-1.06.27-2.07.56-3,.88l-2.76.87-2.44.88c-1.53.54-2.82,1.11-3.89,1.55s-1.88.83-2.36,1.08l-.83.42Z" transform="translate(-18.05 25.99)"/><path class="cls-6" d="M348,507.06" transform="translate(-18.05 25.99)"/><path class="cls-6" d="M261.3,507.06" transform="translate(-18.05 25.99)"/><polyline class="cls-1" points="247.62 314.82 247.62 289.41 255.19 289.41 255.19 283.58 262.76 283.58 262.76 286.5 282.12 286.37 282.37 256.67 294.62 256.67 294.62 284.97 296.74 284.97 296.99 289.41 308.18 289.41 308.18 293.29 321.99 293.29 321.87 299.95 316.62 302.95 316.49 309.75 324.24 314.32"/><line class="cls-7" x1="288.62" y1="258.92" x2="288.62" y2="232.57"/></g><g id="check"><polygon class="cls-1" points="154.71 382.04 172.76 400.84 214.91 359.89 230.5 376.02 172.76 434.74 138.01 397.43 154.71 382.04"/></g><g id="code_new"><path class="cls-1" d="M344.15,227.62l34.69,21.74v17l-48-29.93V218.84l48-30.08v17.12Z" transform="translate(-18.05 25.99)"/><path class="cls-1" d="M434.33,227.62l-34.69-21.74V188.76l48,30.08v17.57l-48,29.93v-17Z" transform="translate(-18.05 25.99)"/></g><g id="load"><path class="cls-1" d="M408.87,334a40.71,40.71,0,0,0-32.17,15.73l-10.18-8.2,1.79,31.75,31.4-5-10.16-8.19a24.87,24.87,0,1,1-1,31.18l-10.73,9.95A40.78,40.78,0,1,0,408.87,334Z" transform="translate(-18.05 25.99)"/></g><g id="mens"><circle class="cls-1" cx="181.57" cy="224.06" r="15.68"/><circle class="cls-1" cx="221.97" cy="197.2" r="16.59"/><path class="cls-6" d="M199.62,217.07" transform="translate(-18.05 25.99)"/><polygon class="cls-1" points="215.33 298.32 147.28 298.32 181.69 245.49 181.69 245.49 215.33 298.32"/><polygon class="cls-1" points="259.18 276.87 212.51 276.87 198.5 255.75 222.38 219.09 222.38 219.09 259.18 276.87"/></g><g id="Ebene_7" data-name="Ebene 7"><text class="cls-8" transform="translate(118.15 205.43) rotate(-51.73)">j</text><text class="cls-8" transform="matrix(0.69, -0.72, 0.72, 0.69, 125.31, 195.61)">e</text><text class="cls-8" transform="translate(145.2 174.77) rotate(-38.19)">n</text><text class="cls-8" transform="translate(168.56 156.33) rotate(-30.3)">a</text><text class="cls-8" transform="translate(193.33 141.63) rotate(-22.18)">d</text><text class="cls-8" transform="translate(222.71 129.67) rotate(-14.06)">e</text><text class="cls-8" transform="matrix(0.99, -0.11, 0.11, 0.99, 250.73, 122.64)">v</text><text class="cls-8" transform="matrix(1, 0.01, -0.01, 1, 277.44, 119.5)">s</text><text class="cls-8" transform="matrix(0.99, 0.11, -0.11, 0.99, 304.53, 120.13)"> </text><text class="cls-8" transform="matrix(0.97, 0.25, -0.25, 0.97, 318.45, 120.41)">M</text><text class="cls-8" transform="translate(363.24 132.72) rotate(24.55)">e</text><text class="cls-8" transform="translate(389.48 144.62) rotate(32.31)">e</text><text class="cls-8" transform="matrix(0.78, 0.62, -0.62, 0.78, 413.87, 160.37)">t</text><text class="cls-8" transform="translate(427.42 170.64) rotate(44.96)">u</text><text class="cls-8" transform="translate(448.56 191.52) rotate(53.26)">p</text></g><g id="Ebene_8" data-name="Ebene 8"><text class="cls-8" transform="matrix(0.28, 0.96, -0.96, 0.28, 56.01, 382.23)">S</text><text class="cls-8" transform="translate(67.38 419.2) rotate(64.58)">o</text><text class="cls-8" transform="matrix(0.53, 0.85, -0.85, 0.53, 82.79, 450.27)">f</text><text class="cls-8" transform="translate(92.85 466.29) rotate(53.38)">t</text><text class="cls-8" transform="matrix(0.7, 0.71, -0.71, 0.7, 105.13, 483.82)">w</text><text class="cls-8" transform="translate(138.06 515.93) rotate(35.61)">e</text><text class="cls-8" transform="translate(164.95 534.61) rotate(29)">r</text><text class="cls-8" transform="translate(183.83 545.22) rotate(22.6)">k</text><text class="cls-8" transform="matrix(0.97, 0.26, -0.26, 0.97, 213.44, 557.3)">s</text><text class="cls-8" transform="translate(243.62 565.27) rotate(7.46)">k</text><text class="cls-8" transform="translate(275.63 569.27) rotate(-0.51)">a</text><text class="cls-8" transform="matrix(0.98, -0.19, 0.19, 0.98, 310.05, 569.33)">m</text><text class="cls-8" transform="translate(361.26 558.9) rotate(-23.4)">m</text><text class="cls-8" transform="matrix(0.83, -0.55, 0.55, 0.83, 407.78, 537.53)">e</text><text class="cls-8" transform="matrix(0.76, -0.65, 0.65, 0.76, 434.74, 519.02)">r</text><text class="cls-8" transform="matrix(0.71, -0.7, 0.7, 0.71, 450.59, 505.42)"> </text><text class="cls-8" transform="translate(463.15 493.29) rotate(-50.72)">J</text><text class="cls-8" transform="matrix(0.52, -0.85, 0.85, 0.52, 483.44, 468.17)">e</text><text class="cls-8" transform="translate(500.63 439.53) rotate(-66.84)">n</text><text class="cls-8" transform="translate(513.85 407.96) rotate(-74.86)">a</text></g></svg>